<svg xmlns="http://www.w3.org/2000/svg" width="259" height="35" viewBox="0 0 259 35">
  <g>
    <path d="M30 17.5V35h8v-6.5c0-5.1.3-6.5 1.5-6.5.8 0 3.3 2.9 5.6 6.5 4 6.4 4.1 6.5 8.5 6.5 3.3 0 4.3-.3 3.8-1.3-.4-.6-2.5-3.8-4.6-6.9-2.1-3.1-3.8-6.1-3.8-6.5 0-.4 1.2-1.9 2.5-3.2 1.8-1.7 2.5-3.4 2.5-6.3C54 2.8 49.8 0 37.5 0H30v17.5zM60 17.5V35h21v-7H68v-8h12v-7H68V7h13V0H60v17.5zM84 17.5V35h8.2l-.3-12.4-.4-12.3 7 12.3 7 12.4H116V0h-8v23.5l-6.8-11.7L94.5 0H84v17.5zM119 17.5V35h8.2l-.3-12.4-.4-12.3 7 12.3 7 12.4H151V0h-8v23.5l-6.8-11.7L129.5 0H119v17.5zM154 17.5V35h21v-7h-13v-8h12v-7h-12V7h13V0h-21v17.5zM180 17.4V35h8v-6.5c0-8.9 2.1-8.9 7.5 0 3.9 6.4 4.1 6.5 8.3 6.5 2.3 0 4.2-.3 4.2-.7 0-.3-2.1-3.7-4.6-7.4l-4.7-6.8 2.9-2.4c2.4-2.1 2.9-3.3 2.9-7.1 0-3.6-.6-5.1-2.8-7.3C199.2.7 198.3.5 189.5.2L180-.2v17.6zM225.5 1.7c-.4 1-2.9 7.6-5.5 14.8-2.6 7.2-5.3 14.2-5.9 15.7-1 2.8-1 2.8 2.8 2.8h3.8l6.2-16.7C230.3 9 233 1.2 233 .7c0-.4-1.5-.7-3.4-.7-2.3 0-3.6.6-4.1 1.7zM11.2 9.8c-9.9 5-11.2 6-11 8 .2 1.8 2.2 3.1 10.1 6.7 14.2 6.4 13.9 6.3 13.5 2.4-.3-3.1-.8-3.5-7.8-6.3l-7.5-3 7.8-3.6c7.3-3.3 7.7-3.7 7.7-6.8 0-1.7-.3-3.2-.7-3.1-.5 0-5.9 2.6-12.1 5.7zM235 7.3c0 3.1.4 3.4 7.7 6.8l7.8 3.5-7.8 2.9c-7.4 2.9-7.7 3.1-7.7 6.2 0 1.8.2 3.3.5 3.3s5.7-2.3 12-5.1c15.4-6.9 15.4-7.5 0-15.2-6.3-3.1-11.7-5.7-12-5.7-.3 0-.5 1.5-.5 3.3z"/>
    <animate attributeName="fill" values="#FFF;#007bff;#FFF" dur="10s" repeatCount="indefinite" />
  </g>
</svg>
